<svg xmlns="http://www.w3.org/2000/svg" viewBox="0 0 48 48"><defs><style>.cls-1{fill:#92a0f1}</style></defs><g id="Layer_2" data-name="Layer 2"><g id="layer_1-2" data-name="layer 1"><path class="cls-1" d="M1 48a1 1 0 0 1-1-1.25l3-11.21a24 24 0 1 1 9.5 9.5L1.25 48A1.07 1.07 0 0 1 1 48zm11.6-5a1 1 0 0 1 .5.14 22 22 0 1 0-8.21-8.24 1 1 0 0 1 .1.75L2.4 45.6l10-2.59a.73.73 0 0 1 .2-.01z"/><path class="cls-1" d="M9 26h15v2H9zM27 26h12v2H27zM9 32h8v2H9zM20 32h11v2H20zM9 14h18v2H9zM30 14h9v2h-9zM9 20h11v2H9zM23 20h12v2H23z"/></g></g></svg>